{"title":"Mastizaade 2016 Movies DVDRip XviD AAC ESubs New +Sample ~ ☻rDX☻","uid":13524306,"size":739242214,"categoryP":"video","categoryS":"movies","magnet":"?xt=urn:btih:2887fdb537c9c5361168b4497de115f169e43177&amp;dn=Mastizaade+2016+Movies+DVDRip+XviD+AAC+ESubs+New+%2BSample+%7E+%E2%98%BBrDX%E2%98%BB&amp;tr=udp%3A%2F%2Ftracker.leechers-paradise.org%3A6969&amp;tr=udp%3A%2F%2Fzer0day.ch%3A1337&amp;tr=udp%3A%2F%2Fopen.demonii.com%3A1337&amp;tr=udp%3A%2F%2Ftracker.coppersurfer.tk%3A6969&amp;tr=udp%3A%2F%2Fexodus.desync.com%3A6969","seeders":0,"leechers":1,"uploader":"basicssom","files":3,"time":1455381160,"description":"----------------------------------------------------------------\r\nMastizaade 2016 Hindi Movies DVDRip XviD AAC ESubs New Source with Sample ~ ☻rDX☻\r\n\r\nSCREEN SHOTS &amp; POSTER:\r\n  \nhttp://mobileshosting.com/2016/2/Mastizaadedvd/11.html  \nhttp://mobileshosting.com/2016/2/Mastizaadedvd/1.html  \nhttp://mobileshosting.com/2016/2/Mastizaadedvd/2.html  \nhttp://mobileshosting.com/2016/2/Mastizaadedvd/3.html  \nhttp://mobileshosting.com/2016/2/Mastizaadedvd/4.html  \nhttp://mobileshosting.com/2016/2/Mastizaadedvd/5.html  \nhttp://mobileshosting.com/2016/2/Mastizaadedvd/6.html  \nhttp://mobileshosting.com/2016/2/Mastizaadedvd/7.html  \nhttp://mobileshosting.com/2016/2/Mastizaadedvd/8.html  \nhttp://mobileshosting.com/2016/2/Mastizaadedvd/9.html  \nhttp://mobileshosting.com/2016/2/Mastizaadedvd/10.html\r\n\r\nFormat                                   : Matroska\r\nFormat version                           : Version 4 / Version 2\r\nFile size                                : 693 MiB\r\nDuration                                 : 1h 46mn\r\nOverall bit rate                         : 909 Kbps\r\nMovie name                               : Mastizaade 2016 Hindi Movies DVDRip XviD AAC ESubs New Source ☻rDX☻\r\n\r\nVideo\r\nID                                       : 1\r\nFormat                                   : MPEG-4 Visual\r\nFormat profile                           : Advanced   \r\nFormat settings, BVOP                    : Yes\r\nFormat settings, QPel                    : No\r\nFormat settings, GMC                     : No warppoints\r\nFormat settings, Matrix                  : Default (H.263)\r\nCodec ID                                 : V_MS/VFW/FOURCC / XVID\r\nCodec ID/Hint                            : XviD\r\nDuration                                 : 1h 46mn\r\nBit rate                                 : 763 Kbps\r\nWidth                                    : 640 pixels\r\nHeight                                   : 272 pixels\r\nDisplay aspect ratio                     : 2.35:1\r\nFrame rate mode                          : Constant\r\nFrame rate                               : 24.000 fps\r\nColor space                              : YUV\r\nChroma subsampling                       : 4:2:0\r\nBit depth                                : 8 bits\r\nScan type                                : Progressive\r\nCompression mode                         : Lossy\r\nBits/(Pixel*Frame)                       : 0.183\r\nStream size                              : 581 MiB (84%)\r\nTitle                                    : ☻rDX☻\r\nWriting library                          : XviD 65\r\nDefault                                  : Yes\r\nForced                                   : No\r\n\r\nAudio\r\nID                                       : 2\r\nFormat                                   : MPEG Audio\r\nFormat version                           : Version 1\r\nFormat profile                           : Layer 3\r\nMode                                     : Joint stereo\r\nMode extension                           : MS Stereo\r\nCodec ID                                 : A_MPEG/L3\r\nCodec ID/Hint                            : MP3\r\nDuration                                 : 1h 46mn\r\nBit rate mode                            : Constant\r\nBit rate                                 : 128 Kbps\r\nChannel(s)                               : 2 channels\r\nSampling rate                            : 48.0 KHz\r\nCompression mode                         : Lossy\r\nStream size                              : 97.6 MiB (14%)\r\nTitle                                    : ☻rDX☻\r\nWriting library                          : LAME3.99r\r\nEncoding settings                        : -m j -V 4 -q 3 -lowpass 17 -b 128\r\nDefault                                  : Yes\r\nForced                                   : No\r\n\r\nIMDB                                      \nhttp://www.imdb.com/title/tt3726012/","torrent":{"xt":"urn:btih:2887fdb537c9c5361168b4497de115f169e43177","amp;dn":"Mastizaade+2016+Movies+DVDRip+XviD+AAC+ESubs+New+%2BSample+%7E+%E2%98%BBrDX%E2%98%BB","amp;tr":["udp%3A%2F%2Ftracker.leechers-paradise.org%3A6969","udp%3A%2F%2Fzer0day.ch%3A1337","udp%3A%2F%2Fopen.demonii.com%3A1337","udp%3A%2F%2Ftracker.coppersurfer.tk%3A6969","udp%3A%2F%2Fexodus.desync.com%3A6969"],"infoHash":"2887fdb537c9c5361168b4497de115f169e43177","infoHashBuffer":{"type":"Buffer","data":[40,135,253,181,55,201,197,54,17,104,180,73,125,225,21,241,105,228,49,119]},"announce":[],"urlList":[]}}